<?xml version="1.0" standalone="no"?>
<!DOCTYPE svg PUBLIC "-//W3C//DTD SVG 20010904//EN"
 "http://www.w3.org/TR/2001/REC-SVG-20010904/DTD/svg10.dtd">
<svg version="1.0" xmlns="http://www.w3.org/2000/svg"
 width="270.000000pt" height="270.000000pt" viewBox="0 0 270.000000 270.000000"
 preserveAspectRatio="xMidYMid meet">
<metadata>
Created by potrace 1.11, written by Peter Selinger 2001-2013
</metadata>
<g transform="translate(0.000000,270.000000) scale(0.100000,-0.100000)"
fill="#000000" stroke="none">
<path d="M1273 2355 c-343 -61 -613 -288 -737 -617 -73 -192 -87 -374 -50
-622 8 -56 51 -199 76 -254 59 -129 168 -263 283 -344 83 -59 231 -127 310
-143 152 -30 201 -34 415 -30 124 2 236 6 250 9 14 2 49 7 78 10 221 25 201
12 228 136 23 100 74 279 94 328 21 49 14 62 -35 62 -33 0 -50 -6 -65 -22 -11
-12 -20 -25 -20 -30 0 -16 -56 -126 -91 -179 -82 -122 -191 -174 -389 -186
-223 -13 -425 68 -577 231 -178 189 -269 458 -259 758 10 297 119 522 316 653
129 86 271 123 459 123 269 -2 409 -98 486 -336 18 -55 37 -71 79 -66 11 1 27
3 34 3 14 1 14 10 -11 126 -16 73 -22 109 -31 185 -16 139 -16 138 -39 143
-12 2 -64 14 -115 26 -107 24 -134 29 -234 40 -114 13 -375 10 -455 -4z"/>
</g>
</svg>
